<svg style="position: absolute; width: 0; height: 0; overflow: hidden;" version="1.1" xmlns="http://www.w3.org/2000/svg" xmlns:xlink="http://www.w3.org/1999/xlink">
<defs>
<symbol id="icon-known" viewBox="0 0 32 32">
<title>known</title>
<path d="M12.291 1.635c-5.26 1.416-9.576 5.833-10.757 11.026-1.079 4.586 0.303 9.678 3.574 13.151 3.271 3.507 6.575 4.822 11.532 4.62 2.9-0.101 3.541-0.236 5.631-1.281 2.967-1.45 5.429-3.912 6.879-6.879 1.045-2.091 1.18-2.731 1.281-5.631 0.169-3.709-0.337-5.8-2.023-8.464-1.214-1.956-3.777-4.384-5.597-5.294-3.17-1.619-7.385-2.124-10.521-1.248zM19.743 3.861c5.294 1.652 8.733 6.407 8.733 11.971 0 11.532-14.095 16.927-21.884 8.43-2.259-2.495-3.17-4.923-3.17-8.43 0-3.406 0.91-5.901 3.035-8.261 3.507-3.912 8.363-5.26 13.286-3.709z"></path>
<path d="M7.57 8.75c0 1.012 0.101 1.18 0.809 1.18 0.438 0 0.91 0.236 1.012 0.54 0.27 0.674 0.27 10.386 0 11.060-0.101 0.303-0.573 0.54-1.012 0.54-0.708 0-0.809 0.169-0.809 1.18v1.18h7.418v-1.146c0-0.944-0.135-1.18-0.742-1.281-0.641-0.067-0.809-0.337-0.877-1.585-0.101-1.214 0.034-1.619 0.809-2.428 0.506-0.54 1.045-0.978 1.18-0.978 0.236 0 3.001 4.417 3.001 4.822 0 0.135-0.303 0.236-0.674 0.236-0.54 0-0.674 0.236-0.674 1.18v1.18h7.418v-1.146c0-0.91-0.169-1.18-0.742-1.349-0.506-0.135-1.652-1.517-3.203-3.878l-2.394-3.642 2.259-2.259c1.214-1.214 2.495-2.226 2.832-2.226 0.438 0 0.573-0.303 0.573-1.18v-1.18h-6.744v1.18c0 0.944 0.135 1.18 0.674 1.18 0.371 0 0.674 0.101 0.674 0.27 0 0.135-1.146 1.383-2.529 2.765l-2.563 2.529 0.101-2.698c0.101-2.495 0.169-2.698 0.877-2.799 0.607-0.101 0.742-0.337 0.742-1.281v-1.146h-7.418v1.18z"></path>
</symbol>
<symbol id="icon-quill" viewBox="0 0 32 32">
<title>quill</title>
<path d="M0 32c4-12 14.469-32 32-32-8.219 6.594-12 22-18 22s-6 0-6 0l-6 10h-2z"></path>
</symbol>
<symbol id="icon-bullhorn" viewBox="0 0 32 32">
<title>bullhorn</title>
<path d="M32 13.414c0-6.279-1.837-11.373-4.109-11.413 0.009-0 0.018-0.001 0.027-0.001h-2.592c0 0-6.088 4.573-14.851 6.367-0.268 1.415-0.438 3.102-0.438 5.047s0.171 3.631 0.438 5.047c8.763 1.794 14.851 6.367 14.851 6.367h2.592c-0.009 0-0.018-0.001-0.027-0.001 2.272-0.040 4.109-5.134 4.109-11.413zM27.026 23.102c-0.293 0-0.61-0.304-0.773-0.486-0.395-0.439-0.775-1.124-1.1-1.979-0.727-1.913-1.127-4.478-1.127-7.223s0.4-5.309 1.127-7.223c0.325-0.855 0.705-1.54 1.1-1.979 0.163-0.182 0.48-0.486 0.773-0.486s0.61 0.304 0.773 0.486c0.395 0.439 0.775 1.124 1.1 1.979 0.727 1.913 1.127 4.479 1.127 7.223s-0.4 5.309-1.127 7.223c-0.325 0.855-0.705 1.54-1.1 1.979-0.163 0.181-0.48 0.486-0.773 0.486zM7.869 13.414c0-1.623 0.119-3.201 0.345-4.659-1.48 0.205-2.779 0.323-4.386 0.323-2.096 0-2.096 0-2.096 0l-1.733 2.959v2.755l1.733 2.959c0 0 0 0 2.096 0 1.606 0 2.905 0.118 4.386 0.323-0.226-1.458-0.345-3.036-0.345-4.659zM11.505 20.068l-4-0.766 2.558 10.048c0.132 0.52 0.648 0.782 1.146 0.583l3.705-1.483c0.498-0.199 0.698-0.749 0.444-1.221l-3.853-7.161zM27.026 17.148c-0.113 0-0.235-0.117-0.298-0.187-0.152-0.169-0.299-0.433-0.424-0.763-0.28-0.738-0.434-1.726-0.434-2.784s0.154-2.046 0.434-2.784c0.125-0.33 0.272-0.593 0.424-0.763 0.063-0.070 0.185-0.187 0.298-0.187s0.235 0.117 0.298 0.187c0.152 0.169 0.299 0.433 0.424 0.763 0.28 0.737 0.434 1.726 0.434 2.784s-0.154 2.046-0.434 2.784c-0.125 0.33-0.272 0.593-0.424 0.763-0.063 0.070-0.185 0.187-0.298 0.187z"></path>
</symbol>
<symbol id="icon-mug" viewBox="0 0 32 32">
<title>mug</title>
<path d="M30 10h-6v-3c0-2.761-5.373-5-12-5s-12 2.239-12 5v20c0 2.761 5.373 5 12 5s12-2.239 12-5v-3h6c1.105 0 2-0.895 2-2v-10c0-1.105-0.895-2-2-2zM5.502 8.075c-1.156-0.381-1.857-0.789-2.232-1.075 0.375-0.286 1.075-0.694 2.232-1.075 1.811-0.597 4.118-0.925 6.498-0.925s4.688 0.329 6.498 0.925c1.156 0.381 1.857 0.789 2.232 1.075-0.375 0.286-1.076 0.694-2.232 1.075-1.811 0.597-4.118 0.925-6.498 0.925s-4.688-0.329-6.498-0.925zM28 20h-4v-6h4v6z"></path>
</symbol>
<symbol id="icon-earth" viewBox="0 0 32 32">
<title>earth</title>
<path d="M16 0c-8.837 0-16 7.163-16 16s7.163 16 16 16 16-7.163 16-16-7.163-16-16-16zM16 30c-1.967 0-3.84-0.407-5.538-1.139l7.286-8.197c0.163-0.183 0.253-0.419 0.253-0.664v-3c0-0.552-0.448-1-1-1-3.531 0-7.256-3.671-7.293-3.707-0.188-0.188-0.442-0.293-0.707-0.293h-4c-0.552 0-1 0.448-1 1v6c0 0.379 0.214 0.725 0.553 0.894l3.447 1.724v5.871c-3.627-2.53-6-6.732-6-11.489 0-2.147 0.484-4.181 1.348-6h3.652c0.265 0 0.52-0.105 0.707-0.293l4-4c0.188-0.188 0.293-0.442 0.293-0.707v-2.419c1.268-0.377 2.61-0.581 4-0.581 2.2 0 4.281 0.508 6.134 1.412-0.13 0.109-0.256 0.224-0.376 0.345-1.133 1.133-1.757 2.64-1.757 4.243s0.624 3.109 1.757 4.243c1.139 1.139 2.663 1.758 4.239 1.758 0.099 0 0.198-0.002 0.297-0.007 0.432 1.619 1.211 5.833-0.263 11.635-0.014 0.055-0.022 0.109-0.026 0.163-2.541 2.596-6.084 4.208-10.004 4.208z"></path>
</symbol>
<symbol id="icon-omega" viewBox="0 0 32 32">
<title>omega</title>
<path d="M22 28h8l2-4v8h-12v-6.694c4.097-1.765 7-6.161 7-11.306 0-6.701-4.925-11.946-11-11.946s-11 5.245-11 11.946c0 5.144 2.903 9.541 7 11.306v6.694h-12v-8l2 4h8v-1.018c-5.863-2.077-10-7.106-10-12.982 0-7.732 7.163-14 16-14s16 6.268 16 14c0 5.875-4.137 10.905-10 12.982v1.018z"></path>
</symbol>
<symbol id="icon-share" viewBox="0 0 32 32">
<title>share</title>
<path d="M8 20c0 0 1.838-6 12-6v6l12-8-12-8v6c-8 0-12 4.99-12 10zM22 24h-18v-12h3.934c0.315-0.372 0.654-0.729 1.015-1.068 1.374-1.287 3.018-2.27 4.879-2.932h-13.827v20h26v-8.395l-4 2.667v1.728z"></path>
</symbol>
<symbol id="icon-share2" viewBox="0 0 32 32">
<title>share2</title>
<path d="M27 22c-1.411 0-2.685 0.586-3.594 1.526l-13.469-6.734c0.041-0.258 0.063-0.522 0.063-0.791s-0.022-0.534-0.063-0.791l13.469-6.734c0.909 0.94 2.183 1.526 3.594 1.526 2.761 0 5-2.239 5-5s-2.239-5-5-5-5 2.239-5 5c0 0.269 0.022 0.534 0.063 0.791l-13.469 6.734c-0.909-0.94-2.183-1.526-3.594-1.526-2.761 0-5 2.239-5 5s2.239 5 5 5c1.411 0 2.685-0.586 3.594-1.526l13.469 6.734c-0.041 0.258-0.063 0.522-0.063 0.791 0 2.761 2.239 5 5 5s5-2.239 5-5c0-2.761-2.239-5-5-5z"></path>
</symbol>
<symbol id="icon-twitter" viewBox="0 0 32 32">
<title>twitter</title>
<path d="M32 7.075c-1.175 0.525-2.444 0.875-3.769 1.031 1.356-0.813 2.394-2.1 2.887-3.631-1.269 0.75-2.675 1.3-4.169 1.594-1.2-1.275-2.906-2.069-4.794-2.069-3.625 0-6.563 2.938-6.563 6.563 0 0.512 0.056 1.012 0.169 1.494-5.456-0.275-10.294-2.888-13.531-6.862-0.563 0.969-0.887 2.1-0.887 3.3 0 2.275 1.156 4.287 2.919 5.463-1.075-0.031-2.087-0.331-2.975-0.819 0 0.025 0 0.056 0 0.081 0 3.181 2.263 5.838 5.269 6.437-0.55 0.15-1.131 0.231-1.731 0.231-0.425 0-0.831-0.044-1.237-0.119 0.838 2.606 3.263 4.506 6.131 4.563-2.25 1.762-5.075 2.813-8.156 2.813-0.531 0-1.050-0.031-1.569-0.094 2.913 1.869 6.362 2.95 10.069 2.95 12.075 0 18.681-10.006 18.681-18.681 0-0.287-0.006-0.569-0.019-0.85 1.281-0.919 2.394-2.075 3.275-3.394z"></path>
</symbol>
<symbol id="icon-github" viewBox="0 0 32 32">
<title>github</title>
<path d="M16 0.395c-8.836 0-16 7.163-16 16 0 7.069 4.585 13.067 10.942 15.182 0.8 0.148 1.094-0.347 1.094-0.77 0-0.381-0.015-1.642-0.022-2.979-4.452 0.968-5.391-1.888-5.391-1.888-0.728-1.849-1.776-2.341-1.776-2.341-1.452-0.993 0.11-0.973 0.11-0.973 1.606 0.113 2.452 1.649 2.452 1.649 1.427 2.446 3.743 1.739 4.656 1.33 0.143-1.034 0.558-1.74 1.016-2.14-3.554-0.404-7.29-1.777-7.29-7.907 0-1.747 0.625-3.174 1.649-4.295-0.166-0.403-0.714-2.030 0.155-4.234 0 0 1.344-0.43 4.401 1.64 1.276-0.355 2.645-0.532 4.005-0.539 1.359 0.006 2.729 0.184 4.008 0.539 3.054-2.070 4.395-1.64 4.395-1.64 0.871 2.204 0.323 3.831 0.157 4.234 1.026 1.12 1.647 2.548 1.647 4.295 0 6.145-3.743 7.498-7.306 7.895 0.574 0.497 1.085 1.47 1.085 2.963 0 2.141-0.019 3.864-0.019 4.391 0 0.426 0.288 0.925 1.099 0.768 6.354-2.118 10.933-8.113 10.933-15.18 0-8.837-7.164-16-16-16z"></path>
</symbol>
<symbol id="icon-git" viewBox="0 0 32 32">
<title>git</title>
<path d="M31.397 14.575l-13.972-13.971c-0.804-0.805-2.109-0.805-2.915 0l-3.246 3.246 2.443 2.443c0.392-0.187 0.83-0.293 1.293-0.293 1.657 0 3 1.343 3 3 0 0.463-0.105 0.902-0.293 1.293l3.999 3.999c0.392-0.187 0.83-0.293 1.293-0.293 1.657 0 3 1.343 3 3s-1.343 3-3 3-3-1.343-3-3c0-0.463 0.105-0.902 0.293-1.293l-3.999-3.999c-0.095 0.046-0.193 0.086-0.293 0.121v8.343c1.165 0.412 2 1.522 2 2.829 0 1.657-1.343 3-3 3s-3-1.343-3-3c0-1.306 0.835-2.417 2-2.829v-8.343c-1.165-0.412-2-1.522-2-2.829 0-0.463 0.105-0.902 0.293-1.293l-2.443-2.443-9.247 9.246c-0.805 0.806-0.805 2.11 0 2.915l13.973 13.971c0.804 0.805 2.109 0.805 2.915 0l13.906-13.906c0.805-0.805 0.805-2.111-0-2.915z"></path>
</symbol>
<symbol id="icon-rss" viewBox="0 0 32 32">
<title>rss</title>
<path d="M4.259 23.467c-2.35 0-4.259 1.917-4.259 4.252 0 2.349 1.909 4.244 4.259 4.244 2.358 0 4.265-1.895 4.265-4.244-0-2.336-1.907-4.252-4.265-4.252zM0.005 10.873v6.133c3.993 0 7.749 1.562 10.577 4.391 2.825 2.822 4.384 6.595 4.384 10.603h6.16c-0-11.651-9.478-21.127-21.121-21.127zM0.012 0v6.136c14.243 0 25.836 11.604 25.836 25.864h6.152c0-17.64-14.352-32-31.988-32z"></path>
</symbol>
<symbol id="icon-rss2" viewBox="0 0 32 32">
<title>rss2</title>
<path d="M29 0h-26c-1.65 0-3 1.35-3 3v26c0 1.65 1.35 3 3 3h26c1.65 0 3-1.35 3-3v-26c0-1.65-1.35-3-3-3zM8.719 25.975c-1.5 0-2.719-1.206-2.719-2.706 0-1.488 1.219-2.712 2.719-2.712 1.506 0 2.719 1.225 2.719 2.712 0 1.5-1.219 2.706-2.719 2.706zM15.544 26c0-2.556-0.994-4.962-2.794-6.762-1.806-1.806-4.2-2.8-6.75-2.8v-3.912c7.425 0 13.475 6.044 13.475 13.475h-3.931zM22.488 26c0-9.094-7.394-16.5-16.481-16.5v-3.912c11.25 0 20.406 9.162 20.406 20.413h-3.925z"></path>
</symbol>
<symbol id="icon-masto" viewBox="0 0 32 32">
<title>masto</title>
<path d="M16 0c-4.418 0-8.418 1.791-11.314 4.686-2.905 2.897-4.703 6.904-4.703 11.331 0 8.837 7.163 16 16 16 4.427 0 8.433-1.798 11.33-4.703 2.896-2.896 4.687-6.896 4.687-11.314 0-8.837-7.163-16-16-16zM15.998 8.962h3.428c-0.61 0.43-0.838 1.633-0.868 2.363v6.661c0 1.418-1.142 2.56-2.56 2.56s-2.56-1.142-2.56-2.56v-6.464c0-1.418 1.142-2.56 2.56-2.56zM15.984 10.626c-0.495 0-0.896 0.401-0.896 0.896s0.401 0.896 0.896 0.896 0.896-0.401 0.896-0.896c0-0.495-0.401-0.896-0.896-0.896zM7.054 10.878c1.418 0 2.56 1.142 2.56 2.56v6.597c0.030 0.73 0.258 1.933 0.868 2.363h-3.428c-1.418 0-2.56-1.142-2.56-2.56v-6.4c0-1.418 1.142-2.56 2.56-2.56zM24.946 10.878c1.418 0 2.56 1.142 2.56 2.56v6.4c0 1.418-1.142 2.56-2.56 2.56h-3.428c0.61-0.43 0.838-1.633 0.868-2.363v-6.597c0-1.418 1.142-2.56 2.56-2.56zM7.040 12.544c-0.495 0-0.896 0.401-0.896 0.896s0.401 0.896 0.896 0.896 0.896-0.401 0.896-0.896-0.401-0.896-0.896-0.896zM24.96 12.544c-0.495 0-0.896 0.401-0.896 0.896s0.401 0.896 0.896 0.896 0.896-0.401 0.896-0.896-0.401-0.896-0.896-0.896zM15.984 13.826c-0.495 0-0.896 0.401-0.896 0.896s0.401 0.896 0.896 0.896 0.896-0.401 0.896-0.896c0-0.495-0.401-0.896-0.896-0.896zM7.040 15.742c-0.495 0-0.896 0.401-0.896 0.896s0.401 0.896 0.896 0.896 0.896-0.401 0.896-0.896c0-0.495-0.401-0.896-0.896-0.896zM24.96 15.742c-0.495 0-0.896 0.401-0.896 0.896s0.401 0.896 0.896 0.896 0.896-0.401 0.896-0.896c0-0.495-0.401-0.896-0.896-0.896zM15.984 17.024c-0.495 0-0.896 0.401-0.896 0.896s0.401 0.896 0.896 0.896 0.896-0.401 0.896-0.896-0.401-0.896-0.896-0.896zM7.040 18.942c-0.495 0-0.896 0.401-0.896 0.896s0.401 0.896 0.896 0.896 0.896-0.401 0.896-0.896c0-0.495-0.401-0.896-0.896-0.896zM24.96 18.942c-0.495 0-0.896 0.401-0.896 0.896s0.401 0.896 0.896 0.896 0.896-0.401 0.896-0.896c0-0.495-0.401-0.896-0.896-0.896z"></path>
</symbol>
<symbol id="icon-brand" viewBox="0 0 32 32">
<title>brand</title>
<path fill="#e24329" style="fill: var(--color1, #e24329)" d="M31.94 18.116l-1.79-5.512-3.55-10.92c-0.18-0.564-0.976-0.564-1.16 0l-3.548 10.916h-11.784l-3.548-10.916c-0.184-0.564-0.98-0.564-1.16-0.004l-3.552 10.92-1.788 5.516c-0.164 0.5 0.016 1.052 0.44 1.364l15.5 11.26 15.5-11.26c0.424-0.312 0.604-0.86 0.44-1.364z"></path>
</symbol>
<symbol id="icon-jsonfeed" viewBox="0 0 32 32">
<title>jsonfeed</title>
<path fill="#497614" style="fill: var(--color2, #497614)" d="M9.301 25.472l0.042 0.042c1.692-1.692 2.916-1.562 4.959 0.482l3.228 3.228c3.358 3.358 6.495 3.189 10.244-0.56l1.145-1.145-2.434-2.434-0.586 0.586c-2.122 2.122-3.606 2.148-5.636 0.117l-3.788-3.788c-1.953-1.953-3.892-2.148-5.753-0.599l-0.364-0.364c1.588-1.926 1.432-3.723-0.456-5.61l-3.397-3.397c-2.070-2.070-2.057-3.514 0.091-5.662l0.586-0.586-2.421-2.421-1.145 1.145c-3.762 3.762-3.97 6.834-0.69 10.114l2.798 2.798c2.044 2.044 2.174 3.293 0.495 4.972l0.012 0.012c-0.749 0.854-0.716 2.155 0.099 2.97s2.116 0.848 2.97 0.099z"></path>
<path fill="#8be028" style="fill: var(--color3, #8be028)" d="M18.019 13.684c0.849 0.849 0.849 2.227 0 3.076s-2.227 0.849-3.076 0c-0.849-0.849-0.849-2.227 0-3.076s2.227-0.849 3.076 0z"></path>
<path fill="#8be028" style="fill: var(--color3, #8be028)" d="M23.146 8.558c0.849 0.849 0.849 2.227 0 3.076s-2.227 0.849-3.076 0c-0.849-0.849-0.849-2.227 0-3.076s2.227-0.849 3.076 0z"></path>
<path fill="#8be028" style="fill: var(--color3, #8be028)" d="M28.272 3.431c0.849 0.849 0.849 2.227 0 3.076s-2.227 0.849-3.076 0c-0.849-0.849-0.849-2.227 0-3.076s2.227-0.849 3.076 0z"></path>
</symbol>
</defs>
</svg>
